<mxfile host="app.diagrams.net" modified="2023-05-16T17:41:45.502Z" agent="Mozilla/5.0 (X11; Ubuntu; Linux x86_64; rv:109.0) Gecko/20100101 Firefox/113.0" version="21.3.2" etag="6-YWuyX5wxLab3_-i3pc" type="github">
  <diagram name="PÃ¡gina-1" id="hD3ZQuuDNIYC-eMozH42">
    <mxGraphModel>
      <root>
        <mxCell id="0" />
        <mxCell id="1" parent="0" />
      </root>
    </mxGraphModel>
  </diagram>
</mxfile>
